<svg xmlns="http://www.w3.org/2000/svg" width="275" height="40" viewBox="0 0 275 40" fill="none"><rect width="119.664" height="40" rx="4" fill="black"></rect><path d="M42.3027 27.1397H37.5693L36.4326 30.4961H34.4277L38.9111 18.0781H40.9941L45.4775 30.4961H43.4385L42.3027 27.1397ZM38.0596 25.5908H41.8116L39.962 20.1436H39.9102L38.0596 25.5908Z" fill="white"></path><path d="M55.1592 25.9699C55.1592 28.7834 53.6533 30.591 51.3809 30.591C50.8052 30.6211 50.2327 30.4885 49.7289 30.2084C49.2251 29.9283 48.8104 29.5119 48.5323 29.007H48.4893V33.4914H46.6309V21.4426H48.4297V22.9485H48.4639C48.7548 22.446 49.1766 22.0318 49.6842 21.7499C50.1918 21.4681 50.7664 21.3291 51.3467 21.3479C53.6446 21.3479 55.1592 23.1643 55.1592 25.9699ZM53.249 25.9699C53.249 24.1369 52.3018 22.9319 50.8565 22.9319C49.4365 22.9319 48.4815 24.1623 48.4815 25.9699C48.4815 27.7942 49.4365 29.0158 50.8565 29.0158C52.3018 29.0158 53.249 27.8196 53.249 25.9699H53.249Z" fill="white"></path><path d="M65.1245 25.9699C65.1245 28.7834 63.6182 30.591 61.3457 30.591C60.7701 30.6211 60.1976 30.4885 59.6938 30.2084C59.19 29.9283 58.7753 29.5119 58.4971 29.007H58.4541V33.4914H56.5957V21.4426H58.3945V22.9485H58.4287C58.7197 22.446 59.1414 22.0318 59.649 21.7499C60.1567 21.4681 60.7312 21.3291 61.3115 21.3479C63.6094 21.3479 65.1245 23.1643 65.1245 25.9699ZM63.2139 25.9699C63.2139 24.1369 62.2666 22.9319 60.8213 22.9319C59.4014 22.9319 58.4463 24.1623 58.4463 25.9699C58.4463 27.7942 59.4014 29.0158 60.8213 29.0158C62.2666 29.0158 63.2139 27.8196 63.2139 25.9699Z" fill="white"></path><path d="M71.711 27.0362C71.8487 28.2676 73.045 29.0762 74.6797 29.0762C76.2461 29.0762 77.3731 28.2676 77.3731 27.1572C77.3731 26.1934 76.6934 25.6162 75.084 25.2207L73.4747 24.833C71.1944 24.2822 70.1358 23.2158 70.1358 21.4854C70.1358 19.3428 72.003 17.8711 74.6534 17.8711C77.2784 17.8711 79.0772 19.3428 79.1378 21.4854H77.2618C77.1495 20.2461 76.125 19.4981 74.628 19.4981C73.1309 19.4981 72.1065 20.2549 72.1065 21.3565C72.1065 22.2344 72.7608 22.751 74.3614 23.1465L75.7295 23.4824C78.2774 24.0849 79.335 25.1084 79.335 26.9248C79.335 29.248 77.4854 30.7031 74.542 30.7031C71.7881 30.7031 69.9287 29.2822 69.8086 27.0361L71.711 27.0362Z" fill="white"></path><path d="M83.3476 19.2998V21.4424H85.0693V22.9141H83.3476V27.9053C83.3476 28.6807 83.6924 29.042 84.4492 29.042C84.6536 29.0384 84.8577 29.0241 85.0605 28.999V30.4619C84.7203 30.5255 84.3744 30.5543 84.0283 30.5478C82.1953 30.5478 81.4805 29.8593 81.4805 28.1035V22.9141H80.1641V21.4424H81.4804V19.2998H83.3476Z" fill="white"></path><path d="M86.0645 25.9697C86.0645 23.1211 87.7422 21.3311 90.3584 21.3311C92.9834 21.3311 94.6533 23.1211 94.6533 25.9697C94.6533 28.8262 92.9922 30.6084 90.3584 30.6084C87.7256 30.6084 86.0645 28.8262 86.0645 25.9697ZM92.7598 25.9697C92.7598 24.0156 91.8643 22.8623 90.3584 22.8623C88.8525 22.8623 87.957 24.0244 87.957 25.9697C87.957 27.9316 88.8525 29.0762 90.3584 29.0762C91.8643 29.0762 92.7598 27.9316 92.7598 25.9697H92.7598Z" fill="white"></path><path d="M96.1856 21.4425H97.958V22.9835H98.001C98.1209 22.5022 98.4029 22.0769 98.7995 21.779C99.1961 21.4811 99.6831 21.3288 100.179 21.3478C100.393 21.347 100.606 21.3703 100.815 21.4171V23.1554C100.545 23.0728 100.263 23.0348 99.9805 23.0431C99.7105 23.0321 99.4413 23.0797 99.1915 23.1826C98.9417 23.2855 98.717 23.4412 98.5331 23.6391C98.3491 23.837 98.2101 24.0724 98.1257 24.3291C98.0413 24.5857 98.0134 24.8576 98.044 25.1261V30.4962H96.1855L96.1856 21.4425Z" fill="white"></path><path d="M109.384 27.8369C109.134 29.4805 107.533 30.6084 105.485 30.6084C102.852 30.6084 101.217 28.8437 101.217 26.0127C101.217 23.1729 102.86 21.3311 105.407 21.3311C107.912 21.3311 109.487 23.0518 109.487 25.7969V26.4336H103.093V26.5459C103.063 26.8791 103.105 27.2148 103.215 27.5306C103.325 27.8464 103.501 28.1352 103.732 28.3778C103.962 28.6203 104.241 28.8111 104.551 28.9374C104.861 29.0637 105.194 29.1226 105.528 29.1103C105.967 29.1515 106.408 29.0498 106.785 28.8203C107.162 28.5909 107.454 28.246 107.619 27.8369L109.384 27.8369ZM103.102 25.1348H107.628C107.645 24.8352 107.599 24.5354 107.495 24.2541C107.39 23.9729 107.228 23.7164 107.02 23.5006C106.811 23.2849 106.56 23.1145 106.283 23.0003C106.005 22.8861 105.707 22.8305 105.407 22.8369C105.105 22.8351 104.805 22.8933 104.525 23.008C104.245 23.1227 103.99 23.2918 103.776 23.5054C103.561 23.7191 103.391 23.973 103.276 24.2527C103.16 24.5323 103.101 24.8321 103.102 25.1348V25.1348Z" fill="white"></path><path d="M37.8271 8.73089C38.2168 8.70293 38.6077 8.76179 38.9718 8.90323C39.3359 9.04466 39.6641 9.26514 39.9327 9.54876C40.2013 9.83239 40.4036 10.1721 40.525 10.5434C40.6464 10.9146 40.6839 11.3082 40.6348 11.6957C40.6348 13.602 39.6045 14.6977 37.8271 14.6977H35.6719V8.73089H37.8271ZM36.5986 13.8539H37.7236C38.002 13.8705 38.2806 13.8249 38.5392 13.7203C38.7977 13.6157 39.0297 13.4547 39.2182 13.2491C39.4067 13.0436 39.5469 12.7986 39.6288 12.532C39.7107 12.2653 39.7321 11.9838 39.6914 11.7079C39.7291 11.4331 39.7056 11.1533 39.6224 10.8886C39.5393 10.624 39.3987 10.381 39.2106 10.177C39.0226 9.9731 38.7917 9.81329 38.5346 9.70905C38.2776 9.60481 38.0006 9.55873 37.7236 9.5741H36.5986V13.8539Z" fill="white"></path><path d="M41.6819 12.4443C41.6536 12.1484 41.6875 11.8498 41.7813 11.5677C41.8751 11.2857 42.0269 11.0263 42.2268 10.8063C42.4268 10.5864 42.6705 10.4106 42.9423 10.2903C43.2142 10.17 43.5082 10.1079 43.8055 10.1079C44.1027 10.1079 44.3967 10.17 44.6686 10.2903C44.9404 10.4106 45.1841 10.5864 45.3841 10.8063C45.584 11.0263 45.7358 11.2857 45.8296 11.5677C45.9235 11.8498 45.9573 12.1484 45.929 12.4443C45.9578 12.7405 45.9244 13.0395 45.8308 13.322C45.7372 13.6045 45.5855 13.8644 45.3855 14.0848C45.1856 14.3052 44.9417 14.4813 44.6695 14.6019C44.3974 14.7224 44.1031 14.7847 43.8055 14.7847C43.5078 14.7847 43.2135 14.7224 42.9414 14.6019C42.6693 14.4813 42.4254 14.3052 42.2254 14.0848C42.0254 13.8644 41.8737 13.6045 41.7801 13.322C41.6865 13.0395 41.6531 12.7405 41.6819 12.4443ZM45.0149 12.4443C45.0149 11.4682 44.5764 10.8974 43.8069 10.8974C43.0345 10.8974 42.5999 11.4682 42.5999 12.4443C42.5999 13.4282 43.0345 13.9946 43.8069 13.9946C44.5765 13.9946 45.0149 13.4243 45.0149 12.4443H45.0149Z" fill="white"></path><path d="M51.5742 14.6978H50.6523L49.7217 11.3813H49.6514L48.7246 14.6978H47.8115L46.5703 10.1948H47.4717L48.2783 13.6308H48.3447L49.2705 10.1948H50.1231L51.0488 13.6308H51.1191L51.9219 10.1948H52.8105L51.5742 14.6978Z" fill="white"></path><path d="M53.8535 10.1949H54.709V10.9102H54.7754C54.888 10.6533 55.0781 10.4379 55.3189 10.2941C55.5598 10.1503 55.8395 10.0852 56.1191 10.1079C56.3382 10.0915 56.5582 10.1245 56.7628 10.2046C56.9674 10.2847 57.1514 10.4098 57.3011 10.5707C57.4508 10.7315 57.5623 10.924 57.6275 11.1338C57.6927 11.3436 57.7099 11.5654 57.6777 11.7827V14.6977H56.7891V12.0059C56.7891 11.2823 56.4746 10.9224 55.8174 10.9224C55.6686 10.9155 55.5201 10.9408 55.3821 10.9966C55.244 11.0525 55.1197 11.1375 55.0175 11.2459C54.9154 11.3543 54.8379 11.4834 54.7904 11.6246C54.7429 11.7657 54.7264 11.9154 54.7422 12.0635V14.6978H53.8535L53.8535 10.1949Z" fill="white"></path><path d="M59.0938 8.43701H59.9824V14.6978H59.0938V8.43701Z" fill="white"></path><path d="M61.219 12.4444C61.1907 12.1484 61.2246 11.8499 61.3185 11.5678C61.4123 11.2857 61.5641 11.0263 61.7641 10.8064C61.964 10.5864 62.2078 10.4106 62.4796 10.2903C62.7515 10.17 63.0455 10.1079 63.3428 10.1079C63.6401 10.1079 63.9341 10.17 64.206 10.2903C64.4778 10.4106 64.7215 10.5864 64.9215 10.8064C65.1215 11.0263 65.2733 11.2857 65.3671 11.5678C65.461 11.8499 65.4949 12.1484 65.4666 12.4444C65.4954 12.7406 65.4619 13.0396 65.3683 13.3221C65.2747 13.6046 65.123 13.8645 64.9229 14.0849C64.7229 14.3053 64.479 14.4814 64.2069 14.6019C63.9348 14.7225 63.6404 14.7847 63.3428 14.7847C63.0452 14.7847 62.7508 14.7225 62.4787 14.6019C62.2065 14.4814 61.9626 14.3053 61.7626 14.0849C61.5626 13.8645 61.4109 13.6046 61.3173 13.3221C61.2237 13.0396 61.1902 12.7406 61.219 12.4444ZM64.552 12.4444C64.552 11.4683 64.1135 10.8975 63.344 10.8975C62.5715 10.8975 62.137 11.4683 62.137 12.4444C62.137 13.4283 62.5716 13.9947 63.344 13.9947C64.1135 13.9947 64.552 13.4244 64.552 12.4444H64.552Z" fill="white"></path><path d="M66.4023 13.4243C66.4023 12.6138 67.0059 12.1465 68.0771 12.0801L69.2969 12.0098V11.6211C69.2969 11.1455 68.9824 10.877 68.375 10.877C67.8789 10.877 67.5352 11.0591 67.4365 11.3774H66.5762C66.667 10.604 67.3945 10.1079 68.416 10.1079C69.5449 10.1079 70.1816 10.6699 70.1816 11.6211V14.6978H69.3262V14.0649H69.2559C69.1131 14.2919 68.9127 14.477 68.6751 14.6012C68.4375 14.7254 68.1712 14.7843 67.9033 14.7719C67.7143 14.7916 67.5232 14.7714 67.3425 14.7127C67.1617 14.654 66.9953 14.5581 66.8538 14.4311C66.7124 14.3042 66.5992 14.149 66.5214 13.9756C66.4437 13.8021 66.4031 13.6144 66.4023 13.4243ZM69.2969 13.0395V12.6631L68.1973 12.7334C67.5771 12.7749 67.2959 12.9858 67.2959 13.3828C67.2959 13.7881 67.6474 14.0239 68.1309 14.0239C68.2725 14.0382 68.4156 14.0239 68.5516 13.9819C68.6876 13.9398 68.8138 13.8707 68.9226 13.7789C69.0313 13.6871 69.1205 13.5743 69.1849 13.4473C69.2492 13.3202 69.2873 13.1816 69.2969 13.0395Z" fill="white"></path><path d="M71.3496 12.4444C71.3496 11.0215 72.0811 10.1201 73.2188 10.1201C73.5002 10.1072 73.7795 10.1746 74.024 10.3145C74.2685 10.4544 74.4682 10.661 74.5996 10.9101H74.666V8.43701H75.5547V14.6978H74.7031V13.9863H74.6328C74.4912 14.2338 74.2846 14.4378 74.0353 14.5763C73.7861 14.7148 73.5037 14.7825 73.2188 14.772C72.0732 14.772 71.3496 13.8706 71.3496 12.4444ZM72.2676 12.4444C72.2676 13.3994 72.7178 13.9741 73.4707 13.9741C74.2197 13.9741 74.6826 13.3911 74.6826 12.4483C74.6826 11.5098 74.2149 10.9185 73.4707 10.9185C72.7227 10.9185 72.2676 11.4971 72.2676 12.4444H72.2676Z" fill="white"></path><path d="M79.2307 12.4443C79.2024 12.1484 79.2363 11.8498 79.3301 11.5677C79.424 11.2857 79.5757 11.0263 79.7757 10.8063C79.9756 10.5864 80.2193 10.4106 80.4912 10.2903C80.763 10.17 81.057 10.1079 81.3543 10.1079C81.6516 10.1079 81.9455 10.17 82.2174 10.2903C82.4892 10.4106 82.7329 10.5864 82.9329 10.8063C83.1328 11.0263 83.2846 11.2857 83.3784 11.5677C83.4723 11.8498 83.5061 12.1484 83.4778 12.4443C83.5067 12.7405 83.4732 13.0395 83.3796 13.322C83.286 13.6045 83.1344 13.8644 82.9344 14.0848C82.7344 14.3052 82.4905 14.4813 82.2184 14.6019C81.9462 14.7224 81.6519 14.7847 81.3543 14.7847C81.0567 14.7847 80.7623 14.7224 80.4902 14.6019C80.2181 14.4813 79.9742 14.3052 79.7742 14.0848C79.5742 13.8644 79.4225 13.6045 79.3289 13.322C79.2353 13.0395 79.2019 12.7405 79.2307 12.4443ZM82.5637 12.4443C82.5637 11.4682 82.1253 10.8974 81.3557 10.8974C80.5833 10.8974 80.1487 11.4682 80.1487 12.4443C80.1487 13.4282 80.5833 13.9946 81.3557 13.9946C82.1253 13.9946 82.5637 13.4243 82.5637 12.4443Z" fill="white"></path><path d="M84.6699 10.1949H85.5254V10.9102H85.5918C85.7045 10.6533 85.8945 10.4379 86.1353 10.2941C86.3762 10.1503 86.6559 10.0852 86.9356 10.1079C87.1547 10.0915 87.3746 10.1245 87.5792 10.2046C87.7838 10.2847 87.9678 10.4098 88.1175 10.5707C88.2672 10.7315 88.3787 10.924 88.4439 11.1338C88.5091 11.3436 88.5263 11.5654 88.4941 11.7827V14.6977H87.6055V12.0059C87.6055 11.2823 87.291 10.9224 86.6338 10.9224C86.485 10.9155 86.3365 10.9408 86.1985 10.9966C86.0604 11.0525 85.9361 11.1375 85.8339 11.2459C85.7318 11.3543 85.6543 11.4834 85.6068 11.6246C85.5593 11.7657 85.5428 11.9154 85.5586 12.0635V14.6978H84.6699V10.1949Z" fill="white"></path><path d="M93.5166 9.07373V10.2153H94.4922V10.9639H93.5166V13.2793C93.5166 13.751 93.7109 13.9575 94.1533 13.9575C94.2666 13.9572 94.3797 13.9503 94.4922 13.937V14.6772C94.3326 14.7058 94.1709 14.721 94.0088 14.7226C93.0205 14.7226 92.627 14.375 92.627 13.5068V10.9638H91.9121V10.2153H92.627V9.07373H93.5166Z" fill="white"></path><path d="M95.7051 8.43701H96.5859V10.9185H96.6562C96.7744 10.6591 96.9696 10.4425 97.2153 10.2982C97.461 10.1539 97.7452 10.0888 98.0292 10.1118C98.2472 10.1 98.4651 10.1364 98.6674 10.2184C98.8697 10.3004 99.0513 10.4261 99.1995 10.5864C99.3476 10.7468 99.4585 10.9378 99.5243 11.146C99.5901 11.3541 99.6091 11.5742 99.58 11.7905V14.6978H98.6905V12.0098C98.6905 11.2905 98.3555 10.9263 97.7276 10.9263C97.5748 10.9137 97.4212 10.9347 97.2774 10.9878C97.1337 11.0408 97.0032 11.1247 96.8952 11.2334C96.7872 11.3421 96.7043 11.4732 96.6522 11.6173C96.6002 11.7614 96.5802 11.9152 96.5938 12.0679V14.6977H95.7051L95.7051 8.43701Z" fill="white"></path><path d="M104.761 13.482C104.641 13.8935 104.379 14.2495 104.022 14.4877C103.666 14.7258 103.237 14.831 102.81 14.7847C102.514 14.7926 102.219 14.7357 101.946 14.6182C101.674 14.5007 101.43 14.3253 101.232 14.1041C101.034 13.883 100.887 13.6214 100.8 13.3376C100.713 13.0538 100.69 12.7545 100.73 12.4605C100.691 12.1656 100.715 11.8657 100.801 11.581C100.888 11.2964 101.035 11.0336 101.231 10.8105C101.428 10.5874 101.671 10.4093 101.943 10.2881C102.214 10.1669 102.509 10.1054 102.806 10.108C104.059 10.108 104.815 10.964 104.815 12.378V12.6881H101.635V12.7379C101.621 12.9031 101.642 13.0695 101.696 13.2262C101.751 13.383 101.837 13.5267 101.95 13.6481C102.063 13.7696 102.2 13.8661 102.352 13.9315C102.504 13.9969 102.669 14.0297 102.835 14.0279C103.047 14.0534 103.263 14.0151 103.453 13.9179C103.644 13.8207 103.802 13.669 103.906 13.482L104.761 13.482ZM101.635 12.0308H103.91C103.921 11.8797 103.9 11.7279 103.85 11.5852C103.799 11.4425 103.718 11.312 103.614 11.2021C103.51 11.0923 103.383 11.0055 103.243 10.9473C103.103 10.8891 102.953 10.8609 102.801 10.8643C102.648 10.8624 102.495 10.8913 102.353 10.9492C102.21 11.0072 102.081 11.093 101.972 11.2017C101.864 11.3104 101.778 11.4398 101.72 11.5822C101.662 11.7246 101.633 11.8771 101.635 12.0308H101.635Z" fill="white"></path><path d="M24.997 19.8892C25.0082 19.0212 25.2388 18.1702 25.6672 17.4153C26.0957 16.6604 26.7081 16.0261 27.4476 15.5715C26.9779 14.9006 26.3581 14.3485 25.6377 13.959C24.9172 13.5695 24.1158 13.3533 23.2972 13.3277C21.551 13.1444 19.8581 14.3727 18.9682 14.3727C18.0612 14.3727 16.6911 13.3459 15.2158 13.3763C14.2615 13.4071 13.3314 13.6846 12.5163 14.1817C11.7011 14.6789 11.0287 15.3787 10.5644 16.213C8.55327 19.695 10.0534 24.8124 11.9799 27.627C12.9438 29.0052 14.0703 30.5447 15.5443 30.4901C16.9867 30.4303 17.5254 29.5704 19.2665 29.5704C20.9914 29.5704 21.4968 30.4901 23.0007 30.4554C24.5485 30.4303 25.5237 29.0711 26.4537 27.6798C27.1463 26.6978 27.6792 25.6124 28.0327 24.4639C27.1335 24.0836 26.3662 23.447 25.8263 22.6335C25.2865 21.82 24.9981 20.8655 24.997 19.8892Z" fill="white"></path><path d="M22.1563 11.4766C23.0003 10.4635 23.416 9.16135 23.3153 7.84668C22.026 7.98209 20.8351 8.59829 19.9798 9.5725C19.5616 10.0484 19.2413 10.6021 19.0372 11.2019C18.8332 11.8017 18.7493 12.4358 18.7905 13.068C19.4353 13.0746 20.0733 12.9349 20.6563 12.6592C21.2394 12.3835 21.7522 11.9792 22.1563 11.4766Z" fill="white"></path><rect x="139.664" width="135" height="40" rx="4" fill="black"></rect><path d="M150.051 7.60181C149.76 7.90981 149.588 8.38781 149.588 9.00681V31.1228C149.588 31.7428 149.76 32.2198 150.051 32.5278L150.125 32.5998L162.514 20.2108V20.0648V19.9188L150.125 7.52881L150.051 7.60181Z" fill="url(#paint0_linear_726_22)"></path><path d="M166.644 24.3426L162.515 20.2116V20.0656V19.9196L166.645 15.7896L166.738 15.8426L171.631 18.6226C173.029 19.4166 173.029 20.7156 171.631 21.5106L166.738 24.2906L166.644 24.3426Z" fill="url(#paint1_linear_726_22)"></path><path d="M166.738 24.2889L162.515 20.0649L150.051 32.5279C150.512 33.0159 151.272 33.0759 152.129 32.5889L166.738 24.2889Z" fill="url(#paint2_linear_726_22)"></path><path d="M166.738 15.8408L152.13 7.54077C151.273 7.05377 150.513 7.11477 150.052 7.60177L162.515 20.0648L166.738 15.8408Z" fill="url(#paint3_linear_726_22)"></path><path opacity="0.2" d="M166.645 24.1958L152.13 32.4428C151.318 32.9038 150.592 32.8738 150.126 32.4538L150.051 32.5288L150.125 32.6008C150.591 33.0208 151.317 33.0518 152.129 32.5898L166.737 24.2898L166.645 24.1958Z" fill="black"></path><path opacity="0.12" d="M150.051 32.3816C149.76 32.0736 149.588 31.5956 149.588 30.9766V31.1226C149.588 31.7416 149.76 32.2196 150.051 32.5276L150.126 32.4526L150.051 32.3816Z" fill="black"></path><path opacity="0.12" d="M171.631 21.3629L166.645 24.1959L166.738 24.2889L171.631 21.5089C172.33 21.1119 172.679 20.5889 172.679 20.0659C172.62 20.5389 172.264 21.0029 171.631 21.3629Z" fill="black"></path><path opacity="0.25" d="M152.129 7.68677L171.63 18.7668C172.264 19.1268 172.619 19.5908 172.678 20.0648C172.678 19.5418 172.329 19.0178 171.63 18.6208L152.129 7.54077C150.731 6.74677 149.588 7.40577 149.588 9.00677V9.15377C149.588 7.55277 150.732 6.89277 152.129 7.68677Z" fill="black"></path><path d="M207.758 21.705C205.406 21.705 203.489 23.493 203.489 25.958C203.489 28.407 205.406 30.211 207.758 30.211C210.11 30.211 212.027 28.407 212.027 25.958C212.027 23.493 210.11 21.705 207.758 21.705ZM207.758 28.536C206.469 28.536 205.357 27.473 205.357 25.958C205.357 24.427 206.469 23.38 207.758 23.38C209.047 23.38 210.158 24.427 210.158 25.958C210.158 27.472 209.047 28.536 207.758 28.536ZM198.444 21.705C196.092 21.705 194.175 23.493 194.175 25.958C194.175 28.407 196.092 30.211 198.444 30.211C200.796 30.211 202.713 28.407 202.713 25.958C202.714 23.493 200.796 21.705 198.444 21.705ZM198.444 28.536C197.155 28.536 196.044 27.473 196.044 25.958C196.044 24.427 197.156 23.38 198.444 23.38C199.733 23.38 200.844 24.427 200.844 25.958C200.845 27.472 199.733 28.536 198.444 28.536ZM187.366 23.01V24.814H191.684C191.555 25.829 191.217 26.57 190.701 27.086C190.073 27.714 189.09 28.407 187.366 28.407C184.708 28.407 182.63 26.264 182.63 23.606C182.63 20.948 184.708 18.805 187.366 18.805C188.8 18.805 189.847 19.369 190.62 20.094L191.893 18.821C190.814 17.79 189.38 17 187.366 17C183.725 17 180.664 19.964 180.664 23.605C180.664 27.246 183.725 30.21 187.366 30.21C189.331 30.21 190.814 29.566 191.974 28.357C193.166 27.165 193.537 25.489 193.537 24.136C193.537 23.717 193.505 23.33 193.44 23.008H187.366V23.01ZM232.674 24.411C232.32 23.46 231.24 21.704 229.033 21.704C226.842 21.704 225.022 23.428 225.022 25.957C225.022 28.341 226.826 30.21 229.243 30.21C231.192 30.21 232.32 29.018 232.787 28.325L231.337 27.358C230.854 28.067 230.193 28.534 229.243 28.534C228.292 28.534 227.616 28.099 227.181 27.245L232.868 24.893L232.674 24.411ZM226.874 25.829C226.826 24.186 228.147 23.348 229.097 23.348C229.838 23.348 230.466 23.718 230.676 24.25L226.874 25.829ZM222.25 29.953H224.119V17.452H222.25V29.953ZM219.189 22.655H219.125C218.706 22.156 217.901 21.704 216.886 21.704C214.759 21.704 212.81 23.573 212.81 25.973C212.81 28.357 214.759 30.21 216.886 30.21C217.901 30.21 218.706 29.759 219.125 29.243H219.189V29.855C219.189 31.482 218.319 32.352 216.917 32.352C215.773 32.352 215.064 31.53 214.774 30.838L213.147 31.515C213.614 32.643 214.855 34.028 216.917 34.028C219.108 34.028 220.961 32.739 220.961 29.598V21.962H219.189V22.655ZM217.047 28.536C215.758 28.536 214.679 27.457 214.679 25.974C214.679 24.476 215.758 23.38 217.047 23.38C218.32 23.38 219.318 24.475 219.318 25.974C219.318 27.456 218.32 28.536 217.047 28.536ZM241.428 17.452H236.957V29.953H238.822V25.217H241.427C243.495 25.217 245.528 23.72 245.528 21.335C245.528 18.95 243.496 17.452 241.428 17.452ZM241.476 23.477H238.822V19.192H241.476C242.871 19.192 243.663 20.347 243.663 21.335C243.663 22.303 242.871 23.477 241.476 23.477ZM253.008 21.682C251.657 21.682 250.258 22.277 249.679 23.596L251.336 24.288C251.69 23.596 252.349 23.371 253.041 23.371C254.006 23.371 254.987 23.95 255.003 24.979V25.108C254.665 24.915 253.941 24.625 253.057 24.625C251.272 24.625 249.454 25.606 249.454 27.44C249.454 29.113 250.918 30.19 252.558 30.19C253.813 30.19 254.504 29.627 254.938 28.968H255.002V29.933H256.803V25.14C256.803 22.92 255.147 21.682 253.008 21.682ZM252.782 28.533C252.171 28.533 251.318 28.227 251.318 27.472C251.318 26.507 252.38 26.137 253.296 26.137C254.116 26.137 254.502 26.314 255.001 26.555C254.857 27.713 253.86 28.533 252.782 28.533ZM263.365 21.955L261.226 27.375H261.162L258.943 21.955H256.933L260.262 29.53L258.364 33.744H260.31L265.441 21.955H263.365ZM246.558 29.953H248.424V17.452H246.558V29.953Z" fill="white"></path><path fill-rule="evenodd" clip-rule="evenodd" d="M213.273 12.2238C212.683 12.8308 211.95 13.1328 211.073 13.1328C210.196 13.1328 209.463 12.8298 208.874 12.2238C208.284 11.6178 207.99 10.8758 207.99 9.99877C207.99 9.12177 208.284 8.37977 208.874 7.77377C209.463 7.16677 210.196 6.86377 211.073 6.86377C211.945 6.86377 212.677 7.16877 213.269 7.77777C213.861 8.38677 214.157 9.12677 214.157 9.99877C214.157 10.8768 213.862 11.6188 213.273 12.2238ZM209.443 11.7218C209.887 12.1718 210.43 12.3958 211.073 12.3958C211.716 12.3958 212.259 12.1708 212.703 11.7218C213.147 11.2718 213.37 10.6978 213.37 9.99977C213.37 9.30177 213.147 8.72677 212.703 8.27777C212.26 7.82777 211.716 7.60377 211.073 7.60377C210.43 7.60377 209.887 7.82877 209.443 8.27777C209 8.72777 208.777 9.30177 208.777 9.99977C208.777 10.6978 209 11.2718 209.443 11.7218Z" fill="white"></path><path d="M187.082 10.2428C187.082 11.0808 186.834 11.7478 186.337 12.2458C185.773 12.8378 185.037 13.1338 184.133 13.1338C183.267 13.1338 182.53 12.8338 181.925 12.2338C181.319 11.6328 181.016 10.8888 181.016 10.0008C181.016 9.11177 181.319 8.36777 181.925 7.76777C182.53 7.16677 183.267 6.86677 184.133 6.86677C184.563 6.86677 184.974 6.95077 185.364 7.11777C185.755 7.28577 186.068 7.50877 186.302 7.78777L185.775 8.31577C185.378 7.84077 184.831 7.60377 184.132 7.60377C183.5 7.60377 182.954 7.82577 182.493 8.26977C182.033 8.71377 181.803 9.28977 181.803 9.99977C181.803 10.7098 182.033 11.2858 182.494 11.7308C182.955 12.1748 183.501 12.3968 184.133 12.3968C184.803 12.3968 185.362 12.1738 185.809 11.7268C186.099 11.4358 186.267 11.0308 186.312 10.5118H184.133V9.78977H187.04C187.069 9.94677 187.082 10.0978 187.082 10.2428Z" fill="white"></path><path d="M191.692 7.73677H188.96V9.63877H191.424V10.3598H188.96V12.2618H191.692V12.9998H188.189V6.99977H191.692V7.73677Z" fill="white"></path><path d="M194.171 12.9998H194.942V7.73677H196.618V6.99977H192.495V7.73677H194.171V12.9998Z" fill="white"></path><path d="M199.602 12.9998V6.99977H200.373V12.9998H199.602Z" fill="white"></path><path d="M203.02 12.9998H203.791V7.73677H205.467V6.99977H201.344V7.73677H203.02V12.9998Z" fill="white"></path><path d="M215.239 6.99977V12.9998H216.008V9.26177L215.975 8.10577H216.008L219.059 12.9998H219.864V6.99977H219.093V10.5118L219.126 11.6678H219.093L216.177 6.99977H215.239Z" fill="white"></path><path fill-rule="evenodd" clip-rule="evenodd" d="M213.273 12.2238C212.683 12.8308 211.95 13.1328 211.073 13.1328C210.196 13.1328 209.463 12.8298 208.874 12.2238C208.284 11.6178 207.99 10.8758 207.99 9.99877C207.99 9.12177 208.284 8.37977 208.874 7.77377C209.463 7.16677 210.196 6.86377 211.073 6.86377C211.945 6.86377 212.677 7.16877 213.269 7.77777C213.861 8.38677 214.157 9.12677 214.157 9.99877C214.157 10.8768 213.862 11.6188 213.273 12.2238ZM209.443 11.7218C209.887 12.1718 210.43 12.3958 211.073 12.3958C211.716 12.3958 212.259 12.1708 212.703 11.7218C213.147 11.2718 213.37 10.6978 213.37 9.99977C213.37 9.30177 213.147 8.72677 212.703 8.27777C212.26 7.82777 211.716 7.60377 211.073 7.60377C210.43 7.60377 209.887 7.82877 209.443 8.27777C209 8.72777 208.777 9.30177 208.777 9.99977C208.777 10.6978 209 11.2718 209.443 11.7218Z" stroke="white" stroke-width="0.2" stroke-miterlimit="10"></path><path d="M187.082 10.2428C187.082 11.0808 186.834 11.7478 186.337 12.2458C185.773 12.8378 185.037 13.1338 184.133 13.1338C183.267 13.1338 182.53 12.8338 181.925 12.2338C181.319 11.6328 181.016 10.8888 181.016 10.0008C181.016 9.11177 181.319 8.36777 181.925 7.76777C182.53 7.16677 183.267 6.86677 184.133 6.86677C184.563 6.86677 184.974 6.95077 185.364 7.11777C185.755 7.28577 186.068 7.50877 186.302 7.78777L185.775 8.31577C185.378 7.84077 184.831 7.60377 184.132 7.60377C183.5 7.60377 182.954 7.82577 182.493 8.26977C182.033 8.71377 181.803 9.28977 181.803 9.99977C181.803 10.7098 182.033 11.2858 182.494 11.7308C182.955 12.1748 183.501 12.3968 184.133 12.3968C184.803 12.3968 185.362 12.1738 185.809 11.7268C186.099 11.4358 186.267 11.0308 186.312 10.5118H184.133V9.78977H187.04C187.069 9.94677 187.082 10.0978 187.082 10.2428Z" stroke="white" stroke-width="0.2" stroke-miterlimit="10"></path><path d="M191.692 7.73677H188.96V9.63877H191.424V10.3598H188.96V12.2618H191.692V12.9998H188.189V6.99977H191.692V7.73677Z" stroke="white" stroke-width="0.2" stroke-miterlimit="10"></path><path d="M194.171 12.9998H194.942V7.73677H196.618V6.99977H192.495V7.73677H194.171V12.9998Z" stroke="white" stroke-width="0.2" stroke-miterlimit="10"></path><path d="M199.602 12.9998V6.99977H200.373V12.9998H199.602Z" stroke="white" stroke-width="0.2" stroke-miterlimit="10"></path><path d="M203.02 12.9998H203.791V7.73677H205.467V6.99977H201.344V7.73677H203.02V12.9998Z" stroke="white" stroke-width="0.2" stroke-miterlimit="10"></path><path d="M215.239 6.99977V12.9998H216.008V9.26177L215.975 8.10577H216.008L219.059 12.9998H219.864V6.99977H219.093V10.5118L219.126 11.6678H219.093L216.177 6.99977H215.239Z" stroke="white" stroke-width="0.2" stroke-miterlimit="10"></path><defs><linearGradient id="paint0_linear_726_22" x1="161.415" y1="8.77361" x2="144.633" y2="25.556" gradientUnits="userSpaceOnUse"><stop stop-color="#00A0FF"></stop><stop offset="0.0066" stop-color="#00A1FF"></stop><stop offset="0.2601" stop-color="#00BEFF"></stop><stop offset="0.5122" stop-color="#00D2FF"></stop><stop offset="0.7604" stop-color="#00DFFF"></stop><stop offset="1" stop-color="#00E3FF"></stop></linearGradient><linearGradient id="paint1_linear_726_22" x1="173.45" y1="20.0651" x2="149.253" y2="20.0651" gradientUnits="userSpaceOnUse"><stop stop-color="#FFE000"></stop><stop offset="0.4087" stop-color="#FFBD00"></stop><stop offset="0.7754" stop-color="#FFA500"></stop><stop offset="1" stop-color="#FF9C00"></stop></linearGradient><linearGradient id="paint2_linear_726_22" x1="164.443" y1="22.3601" x2="141.684" y2="45.1184" gradientUnits="userSpaceOnUse"><stop stop-color="#FF3A44"></stop><stop offset="1" stop-color="#C31162"></stop></linearGradient><linearGradient id="paint3_linear_726_22" x1="146.913" y1="0.240069" x2="157.076" y2="10.4026" gradientUnits="userSpaceOnUse"><stop stop-color="#32A071"></stop><stop offset="0.0685" stop-color="#2DA771"></stop><stop offset="0.4762" stop-color="#15CF74"></stop><stop offset="0.8009" stop-color="#06E775"></stop><stop offset="1" stop-color="#00F076"></stop></linearGradient></defs></svg>